<svg xmlns="http://www.w3.org/2000/svg" viewBox="0 0 820 450" width="820" height="450" font-family="Segoe UI, Helvetica, Arial, sans-serif">
<rect x="0" y="0" width="820" height="450" fill="#ffffff"/>
<text x="430" y="34" font-family="Segoe UI, Helvetica, Arial, sans-serif" font-size="15" fill="#1f2933" text-anchor="middle" font-weight="bold">The order you write it is not the order it runs</text>
<text x="190" y="72" font-family="Segoe UI, Helvetica, Arial, sans-serif" font-size="14" fill="#1f2933" text-anchor="middle" font-weight="bold">written order</text>
<text x="620" y="72" font-family="Segoe UI, Helvetica, Arial, sans-serif" font-size="14" fill="#0f766e" text-anchor="middle" font-weight="bold">execution order</text>
<rect x="100" y="90" width="180" height="32" rx="6" fill="#f1f5f9" stroke="#334155" stroke-width="2"/>
<text x="190.0" y="111.0" font-family="ui-monospace, SFMono-Regular, Consolas, monospace" font-size="14" fill="#1f2933" text-anchor="middle" font-weight="normal">SELECT</text>
<rect x="100" y="130" width="180" height="32" rx="6" fill="#f1f5f9" stroke="#334155" stroke-width="2"/>
<text x="190.0" y="151.0" font-family="ui-monospace, SFMono-Regular, Consolas, monospace" font-size="14" fill="#1f2933" text-anchor="middle" font-weight="normal">FROM</text>
<rect x="100" y="170" width="180" height="32" rx="6" fill="#f1f5f9" stroke="#334155" stroke-width="2"/>
<text x="190.0" y="191.0" font-family="ui-monospace, SFMono-Regular, Consolas, monospace" font-size="14" fill="#1f2933" text-anchor="middle" font-weight="normal">JOIN</text>
<rect x="100" y="210" width="180" height="32" rx="6" fill="#f1f5f9" stroke="#334155" stroke-width="2"/>
<text x="190.0" y="231.0" font-family="ui-monospace, SFMono-Regular, Consolas, monospace" font-size="14" fill="#1f2933" text-anchor="middle" font-weight="normal">WHERE</text>
<rect x="100" y="250" width="180" height="32" rx="6" fill="#f1f5f9" stroke="#334155" stroke-width="2"/>
<text x="190.0" y="271.0" font-family="ui-monospace, SFMono-Regular, Consolas, monospace" font-size="14" fill="#1f2933" text-anchor="middle" font-weight="normal">GROUP BY</text>
<rect x="100" y="290" width="180" height="32" rx="6" fill="#f1f5f9" stroke="#334155" stroke-width="2"/>
<text x="190.0" y="311.0" font-family="ui-monospace, SFMono-Regular, Consolas, monospace" font-size="14" fill="#1f2933" text-anchor="middle" font-weight="normal">HAVING</text>
<rect x="100" y="330" width="180" height="32" rx="6" fill="#f1f5f9" stroke="#334155" stroke-width="2"/>
<text x="190.0" y="351.0" font-family="ui-monospace, SFMono-Regular, Consolas, monospace" font-size="14" fill="#1f2933" text-anchor="middle" font-weight="normal">ORDER BY</text>
<rect x="100" y="370" width="180" height="32" rx="6" fill="#f1f5f9" stroke="#334155" stroke-width="2"/>
<text x="190.0" y="391.0" font-family="ui-monospace, SFMono-Regular, Consolas, monospace" font-size="14" fill="#1f2933" text-anchor="middle" font-weight="normal">LIMIT</text>
<rect x="530" y="90" width="180" height="32" rx="6" fill="#ccfbf1" stroke="#334155" stroke-width="2"/>
<text x="620.0" y="111.0" font-family="ui-monospace, SFMono-Regular, Consolas, monospace" font-size="14" fill="#1f2933" text-anchor="middle" font-weight="normal">FROM</text>
<rect x="530" y="130" width="180" height="32" rx="6" fill="#ccfbf1" stroke="#334155" stroke-width="2"/>
<text x="620.0" y="151.0" font-family="ui-monospace, SFMono-Regular, Consolas, monospace" font-size="14" fill="#1f2933" text-anchor="middle" font-weight="normal">JOIN</text>
<rect x="530" y="170" width="180" height="32" rx="6" fill="#fde68a" stroke="#334155" stroke-width="2"/>
<text x="620.0" y="191.0" font-family="ui-monospace, SFMono-Regular, Consolas, monospace" font-size="14" fill="#1f2933" text-anchor="middle" font-weight="normal">WHERE</text>
<rect x="530" y="210" width="180" height="32" rx="6" fill="#ccfbf1" stroke="#334155" stroke-width="2"/>
<text x="620.0" y="231.0" font-family="ui-monospace, SFMono-Regular, Consolas, monospace" font-size="14" fill="#1f2933" text-anchor="middle" font-weight="normal">GROUP BY</text>
<rect x="530" y="250" width="180" height="32" rx="6" fill="#ccfbf1" stroke="#334155" stroke-width="2"/>
<text x="620.0" y="271.0" font-family="ui-monospace, SFMono-Regular, Consolas, monospace" font-size="14" fill="#1f2933" text-anchor="middle" font-weight="normal">HAVING</text>
<rect x="530" y="290" width="180" height="32" rx="6" fill="#fde68a" stroke="#334155" stroke-width="2"/>
<text x="620.0" y="311.0" font-family="ui-monospace, SFMono-Regular, Consolas, monospace" font-size="14" fill="#1f2933" text-anchor="middle" font-weight="normal">SELECT</text>
<rect x="530" y="330" width="180" height="32" rx="6" fill="#ccfbf1" stroke="#334155" stroke-width="2"/>
<text x="620.0" y="351.0" font-family="ui-monospace, SFMono-Regular, Consolas, monospace" font-size="14" fill="#1f2933" text-anchor="middle" font-weight="normal">ORDER BY</text>
<rect x="530" y="370" width="180" height="32" rx="6" fill="#ccfbf1" stroke="#334155" stroke-width="2"/>
<text x="620.0" y="391.0" font-family="ui-monospace, SFMono-Regular, Consolas, monospace" font-size="14" fill="#1f2933" text-anchor="middle" font-weight="normal">LIMIT</text>
<line x1="280" y1="106" x2="530" y2="306" stroke="#b91c1c" stroke-width="1.8"/>
<line x1="280" y1="146" x2="530" y2="106" stroke="#94a3b8" stroke-width="1.8"/>
<line x1="280" y1="186" x2="530" y2="146" stroke="#94a3b8" stroke-width="1.8"/>
<line x1="280" y1="226" x2="530" y2="186" stroke="#b91c1c" stroke-width="1.8"/>
<line x1="280" y1="266" x2="530" y2="226" stroke="#94a3b8" stroke-width="1.8"/>
<line x1="280" y1="306" x2="530" y2="266" stroke="#94a3b8" stroke-width="1.8"/>
<line x1="280" y1="346" x2="530" y2="346" stroke="#94a3b8" stroke-width="1.8"/>
<line x1="280" y1="386" x2="530" y2="386" stroke="#94a3b8" stroke-width="1.8"/>
<text x="430" y="438" font-family="Segoe UI, Helvetica, Arial, sans-serif" font-size="12" fill="#b91c1c" text-anchor="middle" font-weight="normal">which is why WHERE cannot use an alias you defined in SELECT</text>
</svg>
