<svg xmlns="http://www.w3.org/2000/svg" viewBox="0 0 980 370" width="980" height="370" font-family="Segoe UI, Helvetica, Arial, sans-serif" xmlns:c2pa="http://c2pa.org/manifest"><metadata><c2pa:manifest>AAAWgmp1bWIAAAAeanVtZGMycGEAEQAQgAAAqgA4m3EDYzJwYQAAABZcanVtYgAAAEdqdW1kYzJtYQARABCAAACqADibcQN1cm46YzJwYTpiZGE5MDQ1ZC00ZmRjLTRkNDItYWU0NS1hYzg5ZTg5YTMwZGUAAAADl2p1bWIAAAApanVtZGMyYXMAEQAQgAAAqgA4m3EDYzJwYS5hc3NlcnRpb25zAAAAALxqdW1iAAAARGp1bWRjYm9yABEAEIAAAKoAOJtxE2MycGEuaW5ncmVkaWVudC52MwAAAAAYYzJzaLdFUTMuwufymSok9xS+fiUAAABwY2JvcqNpZGM6Zm9ybWF0bWltYWdlL3N2Zyt4bWxqaW5zdGFuY2VJRHgseG1wOmlpZDozZDE1YjU2OS1iMzAwLTRlNDctYmUwYi1iN2ZkODVmOGNjZTRscmVsYXRpb25zaGlwaHBhcmVudE9mAAAB4mp1bWIAAABBanVtZGNib3IAEQAQgAAAqgA4m3ETYzJwYS5hY3Rpb25zLnYyAAAAABhjMnNoNHR+MIH8NSEV+YMmh1/aLgAAAZljYm9yomdhY3Rpb25zgqJmYWN0aW9ua2MycGEub3BlbmVkanBhcmFtZXRlcnOha2luZ3JlZGllbnRzgaJjdXJseC1zZWxmI2p1bWJmPWMycGEuYXNzZXJ0aW9ucy9jMnBhLmluZ3JlZGllbnQudjNkaGFzaFggEmNBiExmVW9noZPnaYjURjX+I5IfbdrPnP/605xg9ZSkZmFjdGlvbngdY29tLmFudGhyb3BpYy5jbGF1ZGUucHJvdmlkZWRqcGFyYW1ldGVyc6F4H2NvbS5hbnRocm9waWMub3JpZ2luLWNvbmZpZGVuY2VndW5rbm93bmtkZXNjcmlwdGlvbnhmQ2xhdWRlIHByb3ZpZGVkIHRoaXMgZmlsZSBhdCB0aGUgcmVxdWVzdCBvZiBhIHVzZXIgYW5kIG1heSBoYXZlIGNyZWF0ZWQgb3IgbW9kaWZpZWQgdGhlIGZpbGUgY29udGVudHMubXNvZnR3YXJlQWdlbnShZG5hbWVmQ2xhdWRlcmFsbEFjdGlvbnNJbmNsdWRlZPUAAADIanVtYgAAAEBqdW1kY2JvcgARABCAAACqADibcRNjMnBhLmhhc2guZGF0YQAAAAAYYzJzaFJP0F34T4zmCJTawQJCj/QAAACAY2JvcqVjYWxnZnNoYTI1NmNwYWRNAAAAAAAAAAAAAAAAAGRoYXNoWCAatvFkbvie2qbrMbVVc2bCNnlpufB8H+6j7D9GMw29S2RuYW1lbmp1bWJmIG1hbmlmZXN0amV4Y2x1c2lvbnOBomVzdGFydBjLZmxlbmd0aBkeBAAAAj5qdW1iAAAAJ2p1bWRjMmNsABEAEIAAAKoAOJtxA2MycGEuY2xhaW0udjIAAAACD2Nib3KlY2FsZ2ZzaGEyNTZpc2lnbmF0dXJleE1zZWxmI2p1bWJmPS9jMnBhL3VybjpjMnBhOmJkYTkwNDVkLTRmZGMtNGQ0Mi1hZTQ1LWFjODllODlhMzBkZS9jMnBhLnNpZ25hdHVyZWppbnN0YW5jZUlEeCx4bXA6aWlkOjNhMGRiZDJiLWIyY2ItNGQ2My1iMjgzLTdkMjNhZmM4OTMwYnJjcmVhdGVkX2Fzc2VydGlvbnODomN1cmx4LXNlbGYjanVtYmY9YzJwYS5hc3NlcnRpb25zL2MycGEuaW5ncmVkaWVudC52M2RoYXNoWCASY0GITGZVb2ehk+dpiNRGNf4jkh9t2s+c//rTnGD1lKJjdXJseCpzZWxmI2p1bWJmPWMycGEuYXNzZXJ0aW9ucy9jMnBhLmFjdGlvbnMudjJkaGFzaFggj6vGdJ2MHuduscT4KTWAHuuQ7upgyjCaLLmTLxQrf26iY3VybHgpc2VsZiNqdW1iZj1jMnBhLmFzc2VydGlvbnMvYzJwYS5oYXNoLmRhdGFkaGFzaFgg5NX42IYXFZ427sOWVNUqhtGp3P+v4m4vwJGb/ehuhcx0Y2xhaW1fZ2VuZXJhdG9yX2luZm+jZG5hbWVvQW50aHJvcGljIEZpbGVzZ3ZlcnNpb25lMS4wLjBrc3BlY1ZlcnNpb25lMi40LjAAABA4anVtYgAAAChqdW1kYzJjcwARABCAAACqADibcQNjMnBhLnNpZ25hdHVyZQAAABAIY2JvctKEWQISogEmGCFZAgowggIGMIIBjaADAgECAhRA5aAK7sI50L64g/oGQgU9Z1UTADAKBggqhkjOPQQDAzBJMRcwFQYDVQQKEw5BbnRocm9waWMsIFBCQzEuMCwGA1UEAxMlQW50aHJvcGljIENvbnRlbnQgQ3JlZGVudGlhbHMgUm9vdCBDQTAeFw0yNjA4MDcxODQzNTZaFw0yODA4MDYxOTQzNTZaMEQxFzAVBgNVBAoTDkFudGhyb3BpYywgUEJDMSkwJwYDVQQDEyBBbnRocm9waWMgQ2xhdWRlIENvbnRlbnQgU2lnbmluZzBZMBMGByqGSM49AgEGCCqGSM49AwEHA0IABJh6CmvLUBgFFNU0vUKlOVtE6djd17L5SuwX0LemFisBM3dkd/3cyjxFA3Qo5S46fX0/ihY0VZ7mfb9KF703t5OjWDBWMA4GA1UdDwEB/wQEAwIHgDAVBgNVHSUEDjAMBgorBgEEAYPoXgIBMAwGA1UdEwEB/wQCMAAwHwYDVR0jBBgwFoAUzlHiBIFOZFsj+OPEz5o+nMHXXMIwCgYIKoZIzj0EAwMDZwAwZAIwMXMdFJ4BetLLVY7ORuE9noqbbAZOZn/aArXyTwFAZfKrPzxF2vPoJNf1+UCdg1XGAjBwX1zd9WGqYkqmL5SFqw1QySjr1zJfpJM9+1rdDwSPLMOPOjKuiXjoU/pUUeG9RwmhY3BhZFkNngAAAAAAAAAAAAAAAAAAAAAAAAAAAAAAAAAAAAAAAAAAAAAAAAAAAAAAAAAAAAAAAAAAAAAAAAAAAAAAAAAAAAAAAAAAAAAAAAAAAAAAAAAAAAAAAAAAAAAAAAAAAAAAAAAAAAAAAAAAAAAAAAAAAAAAAAAAAAAAAAAAAAAAAAAAAAAAAAAAAAAAAAAAAAAAAAAAAAAAAAAAAAAAAAAAAAAAAAAAAAAAAAAAAAAAAAAAAAAAAAAAAAAAAAAAAAAAAAAAAAAAAAAAAAAAAAAAAAAAAAAAAAAAAAAAAAAAAAAAAAAAAAAAAAAAAAAAAAAAAAAAAAAAAAAAAAAAAAAAAAAAAAAAAAAAAAAAAAAAAAAAAAAAAAAAAAAAAAAAAAAAAAAAAAAAAAAAAAAAAAAAAAAAAAAAAAAAAAAAAAAAAAAAAAAAAAAAAAAAAAAAAAAAAAAAAAAAAAAAAAAAAAAAAAAAAAAAAAAAAAAAAAAAAAAAAAAAAAAAAAAAAAAAAAAAAAAAAAAAAAAAAAAAAAAAAAAAAAAAAAAAAAAAAAAAAAAAAAAAAAAAAAAAAAAAAAAAAAAAAAAAAAAAAAAAAAAAAAAAAAAAAAAAAAAAAAAAAAAAAAAAAAAAAAAAAAAAAAAAAAAAAAAAAAAAAAAAAAAAAAAAAAAAAAAAAAAAAAAAAAAAAAAAAAAAAAAAAAAAAAAAAAAAAAAAAAAAAAAAAAAAAAAAAAAAAAAAAAAAAAAAAAAAAAAAAAAAAAAAAAAAAAAAAAAAAAAAAAAAAAAAAAAAAAAAAAAAAAAAAAAAAAAAAAAAAAAAAAAAAAAAAAAAAAAAAAAAAAAAAAAAAAAAAAAAAAAAAAAAAAAAAAAAAAAAAAAAAAAAAAAAAAAAAAAAAAAAAAAAAAAAAAAAAAAAAAAAAAAAAAAAAAAAAAAAAAAAAAAAAAAAAAAAAAAAAAAAAAAAAAAAAAAAAAAAAAAAAAAAAAAAAAAAAAAAAAAAAAAAAAAAAAAAAAAAAAAAAAAAAAAAAAAAAAAAAAAAAAAAAAAAAAAAAAAAAAAAAAAAAAAAAAAAAAAAAAAAAAAAAAAAAAAAAAAAAAAAAAAAAAAAAAAAAAAAAAAAAAAAAAAAAAAAAAAAAAAAAAAAAAAAAAAAAAAAAAAAAAAAAAAAAAAAAAAAAAAAAAAAAAAAAAAAAAAAAAAAAAAAAAAAAAAAAAAAAAAAAAAAAAAAAAAAAAAAAAAAAAAAAAAAAAAAAAAAAAAAAAAAAAAAAAAAAAAAAAAAAAAAAAAAAAAAAAAAAAAAAAAAAAAAAAAAAAAAAAAAAAAAAAAAAAAAAAAAAAAAAAAAAAAAAAAAAAAAAAAAAAAAAAAAAAAAAAAAAAAAAAAAAAAAAAAAAAAAAAAAAAAAAAAAAAAAAAAAAAAAAAAAAAAAAAAAAAAAAAAAAAAAAAAAAAAAAAAAAAAAAAAAAAAAAAAAAAAAAAAAAAAAAAAAAAAAAAAAAAAAAAAAAAAAAAAAAAAAAAAAAAAAAAAAAAAAAAAAAAAAAAAAAAAAAAAAAAAAAAAAAAAAAAAAAAAAAAAAAAAAAAAAAAAAAAAAAAAAAAAAAAAAAAAAAAAAAAAAAAAAAAAAAAAAAAAAAAAAAAAAAAAAAAAAAAAAAAAAAAAAAAAAAAAAAAAAAAAAAAAAAAAAAAAAAAAAAAAAAAAAAAAAAAAAAAAAAAAAAAAAAAAAAAAAAAAAAAAAAAAAAAAAAAAAAAAAAAAAAAAAAAAAAAAAAAAAAAAAAAAAAAAAAAAAAAAAAAAAAAAAAAAAAAAAAAAAAAAAAAAAAAAAAAAAAAAAAAAAAAAAAAAAAAAAAAAAAAAAAAAAAAAAAAAAAAAAAAAAAAAAAAAAAAAAAAAAAAAAAAAAAAAAAAAAAAAAAAAAAAAAAAAAAAAAAAAAAAAAAAAAAAAAAAAAAAAAAAAAAAAAAAAAAAAAAAAAAAAAAAAAAAAAAAAAAAAAAAAAAAAAAAAAAAAAAAAAAAAAAAAAAAAAAAAAAAAAAAAAAAAAAAAAAAAAAAAAAAAAAAAAAAAAAAAAAAAAAAAAAAAAAAAAAAAAAAAAAAAAAAAAAAAAAAAAAAAAAAAAAAAAAAAAAAAAAAAAAAAAAAAAAAAAAAAAAAAAAAAAAAAAAAAAAAAAAAAAAAAAAAAAAAAAAAAAAAAAAAAAAAAAAAAAAAAAAAAAAAAAAAAAAAAAAAAAAAAAAAAAAAAAAAAAAAAAAAAAAAAAAAAAAAAAAAAAAAAAAAAAAAAAAAAAAAAAAAAAAAAAAAAAAAAAAAAAAAAAAAAAAAAAAAAAAAAAAAAAAAAAAAAAAAAAAAAAAAAAAAAAAAAAAAAAAAAAAAAAAAAAAAAAAAAAAAAAAAAAAAAAAAAAAAAAAAAAAAAAAAAAAAAAAAAAAAAAAAAAAAAAAAAAAAAAAAAAAAAAAAAAAAAAAAAAAAAAAAAAAAAAAAAAAAAAAAAAAAAAAAAAAAAAAAAAAAAAAAAAAAAAAAAAAAAAAAAAAAAAAAAAAAAAAAAAAAAAAAAAAAAAAAAAAAAAAAAAAAAAAAAAAAAAAAAAAAAAAAAAAAAAAAAAAAAAAAAAAAAAAAAAAAAAAAAAAAAAAAAAAAAAAAAAAAAAAAAAAAAAAAAAAAAAAAAAAAAAAAAAAAAAAAAAAAAAAAAAAAAAAAAAAAAAAAAAAAAAAAAAAAAAAAAAAAAAAAAAAAAAAAAAAAAAAAAAAAAAAAAAAAAAAAAAAAAAAAAAAAAAAAAAAAAAAAAAAAAAAAAAAAAAAAAAAAAAAAAAAAAAAAAAAAAAAAAAAAAAAAAAAAAAAAAAAAAAAAAAAAAAAAAAAAAAAAAAAAAAAAAAAAAAAAAAAAAAAAAAAAAAAAAAAAAAAAAAAAAAAAAAAAAAAAAAAAAAAAAAAAAAAAAAAAAAAAAAAAAAAAAAAAAAAAAAAAAAAAAAAAAAAAAAAAAAAAAAAAAAAAAAAAAAAAAAAAAAAAAAAAAAAAAAAAAAAAAAAAAAAAAAAAAAAAAAAAAAAAAAAAAAAAAAAAAAAAAAAAAAAAAAAAAAAAAAAAAAAAAAAAAAAAAAAAAAAAAAAAAAAAAAAAAAAAAAAAAAAAAAAAAAAAAAAAAAAAAAAAAAAAAAAAAAAAAAAAAAAAAAAAAAAAAAAAAAAAAAAAAAAAAAAAAAAAAAAAAAAAAAAAAAAAAAAAAAAAAAAAAAAAAAAAAAAAAAAAAAAAAAAAAAAAAAAAAAAAAAAAAAAAAAAAAAAAAAAAAAAAAAAAAAAAAAAAAAAAAAAAAAAAAAAAAAAAAAAAAAAAAAAAAAAAAAAAAAAAAAAAAAAAAAAAAAAAAAAAAAAAAAAAAAAAAAAAAAAAAAAAAAAAAAAAAAAAAAAAAAAAAAAAAAAAAAAAAAAAAAAAAAAAAAAAAAAAAAAAAAAAAAAAAAAAAAAAAAAAAAAAAAAAAAAAAAAAAAAAAAAAAAAAAAAAAAAAAAAAAAAAAAAAAAAAAAAAAAAAAAAAAAAAAAAAAAAAAAAAAAAAAAAAAAAAAAAAAAAAAAAAAAAAAAAAAAAAAAAAAAAAAAAAAAAAAAAAAAAAAAAAAAAAAAAAAAAAAAAAAAAAAAAAAAAAAAAAAAAAAAAAAAAAAAAAAAAAAAAAAAAAAAAAAAAAAAAAAAAAAAAAAAAAAAAAAAAAAAAAAAAAAAAAAAAAAAAAAAAAAAAAAAAAAAAAAAAAAAAAAAAAAAAAAAAAAAAAAAAAAAAAAAAAAAAAAAAAAAAAAAAAAAAAAAAAAAAAAAAAAAAAAAAAAAAAAAAAAAAAAAAAAAAAAAAAAAAAAAAAAAAAAAAAAAAAAAAAAAAAAAAAAAAAAAAAAAAAAAAAAAAAAAAAAAAAAAAAAAAAAAAAAAAAAAAAAAAAAAAAAAAAAAAAAAAAAAAAAAAAAAAAAAAAAAAAAAAAAAAAAAAAAAAAAAAAAAAAAAAAAAAAAAAAAAAAAAAAAAAAAAAAAAAAAAAAAAAAAAAAAAAAAAAAAAAAAAAAAAAAAAAAAAAAAAAAAAAAAAAAAAAAAAAAAAAAAAAAAAAAAAAAAAAAAAAAAAAAAAAAAAAAAAAAAAAAAAAAAAAAAAAAAAAAAAAAAAAAAAAAAAAAAAAAAAAAAAAAAAAAAAAAAAAAAAAAAAAAAAAAAAAAAAAAAAAAAAAAAAAAAAAAAAAAAAAAAAAAAAAAAAAAAAAAAAAAAAAAAAAAAAAAAAAAAAAAAAAAAAAAAAAAAAAAAAAAAAAAAAAAAAAAAAAAAAAAAAAAAAAAAAAAAAAAAAAAAAAAAAAAAAAAAAAAAAAAAAAAAAAAAAAAAAAAAAAAAAAAAAAAAAAAAAAAAAAAAAAAAAAAAAAAAAAAAAAAAAAAAAAAAAAAAAAAAAAAAAAAAAAAAAAAAAAAAAAAAAAAAAAAAAAAAAAAAAAAAAAAAAAAAAAAAAAAAAAAAAAAAAAAAAAAAAAAAAAAAAAAAAAAAAAAAAAAAAAAAAAAAAAAAAAAAAAAAAAAAAAAAAAAAAAAAAAAAAAAAAAAAAAAAAAAAAAAAAAAAAAAAAAAAAAAAAAAAAAAAAAAAAAAAAAAAAAAAAAAAAAAAAAAAAAAAAAAAAAAAAAAAAAAAAAAAAAAAAAPZYQAoIe4bQvtacQfK14VWVS2GA41chbiCQAoxjpI3UyZmMLVB3t79NUOKMn27yugS+wkVO4rO4WeoVSeIKFro8M2w=</c2pa:manifest></metadata>
<defs>
<marker id="ah" viewBox="0 0 10 10" refX="9" refY="5" markerWidth="7" markerHeight="7" orient="auto-start-reverse"><path d="M0,0 L10,5 L0,10 z" fill="#475569"/></marker>
<marker id="aht" viewBox="0 0 10 10" refX="9" refY="5" markerWidth="7" markerHeight="7" orient="auto-start-reverse"><path d="M0,0 L10,5 L0,10 z" fill="#0f766e"/></marker>
<marker id="ahr" viewBox="0 0 10 10" refX="9" refY="5" markerWidth="7" markerHeight="7" orient="auto-start-reverse"><path d="M0,0 L10,5 L0,10 z" fill="#be123c"/></marker>
</defs>
<rect x="0" y="0" width="980" height="370" fill="#ffffff"/>
<text x="24" y="38" font-size="20" text-anchor="start" font-weight="700" fill="#0f766e">Underfitting vs Good Fit vs Overfitting</text>
<rect x="24" y="60" width="300" height="220" rx="10" fill="#f1f5f9" stroke="#cbd5e1" stroke-width="1.5"/>
<text x="40" y="86" font-size="15" text-anchor="start" font-weight="700" fill="#be123c">Underfitting</text>
<text x="308" y="86" font-size="12" text-anchor="end" font-weight="400" fill="#64748b" font-style="italic">high bias</text>
<polyline points="46.0,136.7 302.0,222.5" fill="none" stroke="#be123c" stroke-width="3" stroke-linejoin="round" stroke-linecap="round"/>
<circle cx="46.0" cy="172.0" r="5" fill="#ffffff" stroke="#475569" stroke-width="2"/>
<circle cx="69.27272727272728" cy="164.76044996408515" r="5" fill="#ffffff" stroke="#475569" stroke-width="2"/>
<circle cx="92.54545454545455" cy="125.11703393291188" r="5" fill="#ffffff" stroke="#475569" stroke-width="2"/>
<circle cx="115.81818181818181" cy="133.68350187898187" r="5" fill="#ffffff" stroke="#475569" stroke-width="2"/>
<circle cx="139.0909090909091" cy="124.93583887550597" r="5" fill="#ffffff" stroke="#475569" stroke-width="2"/>
<circle cx="162.36363636363637" cy="168.33075133430341" r="5" fill="#ffffff" stroke="#475569" stroke-width="2"/>
<circle cx="185.63636363636363" cy="179.43636018639566" r="5" fill="#ffffff" stroke="#475569" stroke-width="2"/>
<circle cx="208.9090909090909" cy="224.0651714373344" r="5" fill="#ffffff" stroke="#475569" stroke-width="2"/>
<circle cx="232.1818181818182" cy="216.51143829562636" r="5" fill="#ffffff" stroke="#475569" stroke-width="2"/>
<circle cx="255.45454545454547" cy="233.65011639540188" r="5" fill="#ffffff" stroke="#475569" stroke-width="2"/>
<circle cx="278.72727272727275" cy="209.09437820693805" r="5" fill="#ffffff" stroke="#475569" stroke-width="2"/>
<circle cx="302.0" cy="203.82167011199732" r="5" fill="#ffffff" stroke="#475569" stroke-width="2"/>
<text x="174.0" y="308" font-size="13" text-anchor="middle" font-weight="400" fill="#0f172a">Too simple: misses the pattern.</text>
<text x="174.0" y="328" font-size="13" text-anchor="middle" font-weight="400" fill="#64748b">Train error high, test error high.</text>
<rect x="340" y="60" width="300" height="220" rx="10" fill="#f1f5f9" stroke="#cbd5e1" stroke-width="1.5"/>
<text x="356" y="86" font-size="15" text-anchor="start" font-weight="700" fill="#0f766e">Good fit</text>
<text x="624" y="86" font-size="12" text-anchor="end" font-weight="400" fill="#64748b" font-style="italic">balanced</text>
<polyline points="362.0,180.0 364.6,176.9 367.1,173.9 369.7,170.9 372.2,167.9 374.8,164.9 377.4,162.1 379.9,159.2 382.5,156.5 385.0,153.8 387.6,151.2 390.2,148.7 392.7,146.4 395.3,144.1 397.8,142.0 400.4,140.0 403.0,138.2 405.5,136.5 408.1,135.0 410.6,133.6 413.2,132.4 415.8,131.4 418.3,130.5 420.9,129.8 423.4,129.3 426.0,129.0 428.6,128.8 431.1,128.8 433.7,129.1 436.2,129.5 438.8,130.0 441.4,130.8 443.9,131.7 446.5,132.8 449.0,134.1 451.6,135.5 454.2,137.1 456.7,138.9 459.3,140.8 461.8,142.8 464.4,145.0 467.0,147.2 469.5,149.6 472.1,152.2 474.6,154.8 477.2,157.5 479.8,160.3 482.3,163.1 484.9,166.0 487.4,169.0 490.0,172.0 492.6,175.0 495.1,178.1 497.7,181.1 500.2,184.2 502.8,187.2 505.4,190.2 507.9,193.2 510.5,196.1 513.0,199.0 515.6,201.8 518.2,204.5 520.7,207.2 523.3,209.7 525.8,212.1 528.4,214.5 531.0,216.7 533.5,218.7 536.1,220.7 538.6,222.4 541.2,224.1 543.8,225.5 546.3,226.9 548.9,228.0 551.4,229.0 554.0,229.8 556.6,230.4 559.1,230.9 561.7,231.1 564.2,231.2 566.8,231.1 569.4,230.8 571.9,230.4 574.5,229.7 577.0,228.9 579.6,227.9 582.2,226.7 584.7,225.4 587.3,223.9 589.8,222.3 592.4,220.5 595.0,218.5 597.5,216.4 600.1,214.2 602.6,211.9 605.2,209.4 607.8,206.9 610.3,204.2 612.9,201.5 615.4,198.7 618.0,195.8" fill="none" stroke="#0f766e" stroke-width="3" stroke-linejoin="round" stroke-linecap="round"/>
<circle cx="362.0" cy="172.0" r="5" fill="#ffffff" stroke="#475569" stroke-width="2"/>
<circle cx="385.27272727272725" cy="164.76044996408515" r="5" fill="#ffffff" stroke="#475569" stroke-width="2"/>
<circle cx="408.54545454545456" cy="125.11703393291188" r="5" fill="#ffffff" stroke="#475569" stroke-width="2"/>
<circle cx="431.8181818181818" cy="133.68350187898187" r="5" fill="#ffffff" stroke="#475569" stroke-width="2"/>
<circle cx="455.0909090909091" cy="124.93583887550597" r="5" fill="#ffffff" stroke="#475569" stroke-width="2"/>
<circle cx="478.3636363636364" cy="168.33075133430341" r="5" fill="#ffffff" stroke="#475569" stroke-width="2"/>
<circle cx="501.6363636363636" cy="179.43636018639566" r="5" fill="#ffffff" stroke="#475569" stroke-width="2"/>
<circle cx="524.9090909090909" cy="224.0651714373344" r="5" fill="#ffffff" stroke="#475569" stroke-width="2"/>
<circle cx="548.1818181818182" cy="216.51143829562636" r="5" fill="#ffffff" stroke="#475569" stroke-width="2"/>
<circle cx="571.4545454545455" cy="233.65011639540188" r="5" fill="#ffffff" stroke="#475569" stroke-width="2"/>
<circle cx="594.7272727272727" cy="209.09437820693805" r="5" fill="#ffffff" stroke="#475569" stroke-width="2"/>
<circle cx="618.0" cy="203.82167011199732" r="5" fill="#ffffff" stroke="#475569" stroke-width="2"/>
<text x="490.0" y="308" font-size="13" text-anchor="middle" font-weight="400" fill="#0f172a">Captures the real pattern.</text>
<text x="490.0" y="328" font-size="13" text-anchor="middle" font-weight="400" fill="#64748b">Train error low, test error low.</text>
<rect x="656" y="60" width="300" height="220" rx="10" fill="#f1f5f9" stroke="#cbd5e1" stroke-width="1.5"/>
<text x="672" y="86" font-size="15" text-anchor="start" font-weight="700" fill="#be123c">Overfitting</text>
<text x="940" y="86" font-size="12" text-anchor="end" font-weight="400" fill="#64748b" font-style="italic">high variance</text>
<polyline points="678.0,172.0 679.2,170.5 680.3,169.0 681.5,167.7 682.6,166.4 683.8,165.2 685.0,164.1 686.1,163.3 687.3,162.6 688.5,162.1 689.6,161.7 690.8,161.5 692.0,161.6 693.1,161.7 694.3,162.0 695.4,162.4 696.6,162.9 697.8,163.4 698.9,163.9 700.1,164.4 701.3,164.8 702.4,165.0 703.6,164.9 704.8,164.5 705.9,163.8 707.1,162.8 708.3,161.5 709.4,159.9 710.6,158.1 711.7,155.9 712.9,153.6 714.1,151.0 715.2,148.2 716.4,145.3 717.6,142.3 718.7,139.2 719.9,136.1 721.1,133.1 722.2,130.2 723.4,127.6 724.5,125.1 725.7,123.0 726.9,121.1 728.0,119.6 729.2,118.4 730.4,117.5 731.5,116.9 732.7,116.7 733.9,116.8 735.0,117.2 736.2,117.9 737.3,118.8 738.5,120.1 739.7,121.5 740.8,123.1 742.0,124.8 743.2,126.7 744.3,128.5 745.5,130.3 746.7,132.1 747.8,133.7 749.0,135.1 750.1,136.2 751.3,137.2 752.5,137.9 753.6,138.3 754.8,138.5 756.0,138.4 757.1,138.1 758.3,137.5 759.5,136.7 760.6,135.8 761.8,134.6 762.9,133.4 764.1,132.0 765.3,130.7 766.4,129.3 767.6,127.9 768.8,126.7 769.9,125.7 771.1,124.9 772.3,124.5 773.4,124.3 774.6,124.6 775.7,125.2 776.9,126.1 778.1,127.4 779.2,129.0 780.4,131.0 781.6,133.2 782.7,135.8 783.9,138.6 785.1,141.7 786.2,144.9 787.4,148.3 788.5,151.7 789.7,155.2 790.9,158.7 792.0,162.1 793.2,165.3 794.4,168.3 795.5,171.1 796.7,173.6 797.9,175.8 799.0,177.7 800.2,179.4 801.3,180.7 802.5,181.8 803.7,182.6 804.8,183.1 806.0,183.4 807.2,183.4 808.3,183.3 809.5,182.9 810.7,182.4 811.8,181.8 813.0,181.2 814.1,180.6 815.3,180.1 816.5,179.7 817.6,179.4 818.8,179.5 820.0,179.8 821.1,180.5 822.3,181.4 823.5,182.7 824.6,184.2 825.8,186.1 826.9,188.2 828.1,190.7 829.3,193.3 830.4,196.2 831.6,199.2 832.8,202.4 833.9,205.7 835.1,209.0 836.3,212.3 837.4,215.5 838.6,218.6 839.7,221.5 840.9,224.1 842.1,226.3 843.2,228.3 844.4,229.9 845.6,231.1 846.7,232.1 847.9,232.6 849.1,232.9 850.2,232.7 851.4,232.3 852.5,231.6 853.7,230.6 854.9,229.4 856.0,228.0 857.2,226.4 858.4,224.7 859.5,222.9 860.7,221.2 861.9,219.5 863.0,217.9 864.2,216.5 865.3,215.4 866.5,214.4 867.7,213.8 868.8,213.4 870.0,213.2 871.2,213.4 872.3,213.8 873.5,214.5 874.7,215.4 875.8,216.5 877.0,217.9 878.1,219.5 879.3,221.2 880.5,223.0 881.6,224.9 882.8,226.9 884.0,228.7 885.1,230.5 886.3,232.2 887.5,233.7 888.6,234.8 889.8,235.8 890.9,236.4 892.1,236.7 893.3,236.8 894.4,236.5 895.6,235.9 896.8,235.0 897.9,233.8 899.1,232.4 900.3,230.6 901.4,228.7 902.6,226.5 903.7,224.1 904.9,221.6 906.1,219.1 907.2,216.5 908.4,213.9 909.6,211.4 910.7,209.1 911.9,206.9 913.1,204.8 914.2,202.8 915.4,201.0 916.6,199.4 917.7,198.0 918.9,196.8 920.0,196.0 921.2,195.3 922.4,195.0 923.5,194.9 924.7,195.1 925.9,195.6 927.0,196.3 928.2,197.2 929.4,198.3 930.5,199.5 931.7,200.9 932.8,202.3 934.0,203.8" fill="none" stroke="#be123c" stroke-width="3" stroke-linejoin="round" stroke-linecap="round"/>
<circle cx="678.0" cy="172.0" r="5" fill="#ffffff" stroke="#475569" stroke-width="2"/>
<circle cx="701.2727272727273" cy="164.76044996408515" r="5" fill="#ffffff" stroke="#475569" stroke-width="2"/>
<circle cx="724.5454545454545" cy="125.11703393291188" r="5" fill="#ffffff" stroke="#475569" stroke-width="2"/>
<circle cx="747.8181818181818" cy="133.68350187898187" r="5" fill="#ffffff" stroke="#475569" stroke-width="2"/>
<circle cx="771.0909090909091" cy="124.93583887550597" r="5" fill="#ffffff" stroke="#475569" stroke-width="2"/>
<circle cx="794.3636363636364" cy="168.33075133430341" r="5" fill="#ffffff" stroke="#475569" stroke-width="2"/>
<circle cx="817.6363636363636" cy="179.43636018639566" r="5" fill="#ffffff" stroke="#475569" stroke-width="2"/>
<circle cx="840.9090909090909" cy="224.0651714373344" r="5" fill="#ffffff" stroke="#475569" stroke-width="2"/>
<circle cx="864.1818181818182" cy="216.51143829562636" r="5" fill="#ffffff" stroke="#475569" stroke-width="2"/>
<circle cx="887.4545454545455" cy="233.65011639540188" r="5" fill="#ffffff" stroke="#475569" stroke-width="2"/>
<circle cx="910.7272727272727" cy="209.09437820693805" r="5" fill="#ffffff" stroke="#475569" stroke-width="2"/>
<circle cx="934.0" cy="203.82167011199732" r="5" fill="#ffffff" stroke="#475569" stroke-width="2"/>
<text x="806.0" y="308" font-size="13" text-anchor="middle" font-weight="400" fill="#0f172a">Memorises the noise.</text>
<text x="806.0" y="328" font-size="13" text-anchor="middle" font-weight="400" fill="#64748b">Train error ~0, test error high.</text>
<text x="490" y="355" font-size="13" text-anchor="middle" font-weight="400" fill="#64748b" font-style="italic">The gap between training and test performance is the clearest sign of overfitting.</text>
</svg>
